<?xml version="1.0" encoding="UTF-8"?>
<!--Generator: Apple Native CoreSVG 175.5-->
<!DOCTYPE svg
PUBLIC "-//W3C//DTD SVG 1.1//EN"
       "http://www.w3.org/Graphics/SVG/1.1/DTD/svg11.dtd">
<svg version="1.1" xmlns="http://www.w3.org/2000/svg" xmlns:xlink="http://www.w3.org/1999/xlink" width="14.1209" height="14.1271">
 <g>
  <rect height="14.1271" opacity="0" width="14.1209" x="0" y="0"/>
  <path d="M14.1162 10.3653L14.1209 1.59737C14.1209 0.65323 13.4868 0.0129379 12.5297 0.0129379L3.75506 0.0129379C2.86671 0.0129379 2.19028 0.679597 2.19028 1.49764C2.19028 2.30896 2.87708 2.93118 3.75348 2.93118L7.11423 2.93118L9.27475 2.83756L7.78771 4.16946L0.521394 11.4466C0.195325 11.7861 0 12.1763 0 12.5912C0 13.3824 0.74052 14.1271 1.53585 14.1271C1.95287 14.1271 2.34095 13.9359 2.68045 13.601L9.95763 6.33938L11.2937 4.85026L11.1959 6.96722L11.1959 10.3669C11.1959 11.25 11.8114 11.9322 12.6248 11.9322C13.4496 11.9322 14.1162 11.2361 14.1162 10.3653Z" fill="#a99894" fill-opacity="0.85"/>
 </g>
</svg>
