<?xml version="1.0" encoding="UTF-8"?>
<!--Generator: Apple Native CoreSVG 175.5-->
<!DOCTYPE svg
PUBLIC "-//W3C//DTD SVG 1.1//EN"
       "http://www.w3.org/Graphics/SVG/1.1/DTD/svg11.dtd">
<svg version="1.1" xmlns="http://www.w3.org/2000/svg" xmlns:xlink="http://www.w3.org/1999/xlink" width="17.5869" height="19.6787">
 <g>
  <rect height="19.6787" opacity="0" width="17.5869" x="0" y="0"/>
  <path d="M7.59375 18.2549C10.7666 18.2549 13.3506 16.6729 14.5195 13.9307C14.6514 13.623 14.6338 13.3506 14.4756 13.1924C14.3525 13.0605 14.1064 13.043 13.8428 13.1396C13.1133 13.4297 12.2871 13.5703 11.3291 13.5703C7.34766 13.5703 4.78125 11.0742 4.78125 7.17188C4.78125 6.17871 4.96582 5.0625 5.26465 4.45605C5.41406 4.14844 5.41406 3.87598 5.27344 3.71777C5.12402 3.54199 4.85156 3.51562 4.50879 3.64746C1.81055 4.71973 0 7.5498 0 10.7666C0 15.0381 3.15527 18.2549 7.59375 18.2549ZM14.2031 10.2217C14.3701 10.2217 14.4844 10.1074 14.502 9.93164C14.792 7.58496 14.9062 7.52344 17.2881 7.13672C17.4727 7.11035 17.5869 7.01367 17.5869 6.84668C17.5869 6.67969 17.4727 6.57422 17.3232 6.54785C14.9238 6.09082 14.792 6.09961 14.502 3.75293C14.4844 3.57715 14.3701 3.46289 14.2031 3.46289C14.0449 3.46289 13.9307 3.57715 13.9043 3.74414C13.6055 6.12598 13.5176 6.20508 11.083 6.54785C10.9336 6.56543 10.8193 6.67969 10.8193 6.84668C10.8193 7.00488 10.9336 7.11035 11.083 7.13672C13.5176 7.60254 13.5967 7.60254 13.9043 9.94922C13.9307 10.1074 14.0449 10.2217 14.2031 10.2217ZM10.002 4.27148C10.1074 4.27148 10.1602 4.20996 10.1777 4.11328C10.4502 2.64551 10.4414 2.61035 11.9707 2.32031C12.0674 2.30273 12.1377 2.24121 12.1377 2.13574C12.1377 2.03027 12.0674 1.96875 11.9707 1.95117C10.4414 1.64355 10.4941 1.6084 10.1777 0.158203C10.1602 0.0615234 10.1074 0 10.002 0C9.89648 0 9.83496 0.0615234 9.81738 0.158203C9.50977 1.6084 9.5625 1.64355 8.0332 1.95117C7.92773 1.96875 7.86621 2.03027 7.86621 2.13574C7.86621 2.24121 7.92773 2.30273 8.0332 2.32031C9.5625 2.62793 9.54492 2.64551 9.81738 4.11328C9.83496 4.20996 9.89648 4.27148 10.002 4.27148Z" fill="#a99894" fill-opacity="0.85"/>
 </g>
</svg>
