<?xml version="1.0" encoding="UTF-8"?>
<!--Generator: Apple Native CoreSVG 175.5-->
<!DOCTYPE svg
PUBLIC "-//W3C//DTD SVG 1.1//EN"
       "http://www.w3.org/Graphics/SVG/1.1/DTD/svg11.dtd">
<svg version="1.1" xmlns="http://www.w3.org/2000/svg" xmlns:xlink="http://www.w3.org/1999/xlink" width="16.1807" height="16.1982">
 <g>
  <rect height="16.1982" opacity="0" width="16.1807" x="0" y="0"/>
  <path d="M2.75977 16.1982L13.4209 16.1982C15.2666 16.1982 16.1807 15.2842 16.1807 13.4736L16.1807 2.74219C16.1807 0.931641 15.2666 0.0175781 13.4209 0.0175781L2.75977 0.0175781C0.922852 0.0175781 0 0.922852 0 2.74219L0 13.4736C0 15.293 0.922852 16.1982 2.75977 16.1982ZM2.77734 14.7832C1.89844 14.7832 1.41504 14.3174 1.41504 13.4033L1.41504 2.8125C1.41504 1.89844 1.89844 1.43262 2.77734 1.43262L13.4033 1.43262C14.2734 1.43262 14.7656 1.89844 14.7656 2.8125L14.7656 13.4033C14.7656 14.3174 14.2734 14.7832 13.4033 14.7832ZM10.8457 10.2744C11.2324 10.2744 11.4961 9.97559 11.4961 9.57129L11.4961 5.42285C11.4961 4.9043 11.2061 4.70215 10.7578 4.70215L6.5918 4.70215C6.17871 4.70215 5.91504 4.95703 5.91504 5.34375C5.91504 5.73047 6.1875 5.98535 6.60938 5.98535L8.20898 5.98535L9.50977 5.84473L8.13867 7.11914L4.89551 10.3623C4.77246 10.4854 4.69336 10.6611 4.69336 10.8369C4.69336 11.2324 4.94824 11.4873 5.33496 11.4873C5.5459 11.4873 5.71289 11.4082 5.83594 11.2852L9.07031 8.05078L10.3359 6.69727L10.2041 8.06836L10.2041 9.58887C10.2041 10.002 10.459 10.2744 10.8457 10.2744Z" fill="#a99894" fill-opacity="0.85"/>
 </g>
</svg>
