<?xml version="1.0" encoding="UTF-8"?>
<!--Generator: Apple Native CoreSVG 175.5-->
<!DOCTYPE svg
PUBLIC "-//W3C//DTD SVG 1.1//EN"
       "http://www.w3.org/Graphics/SVG/1.1/DTD/svg11.dtd">
<svg version="1.1" xmlns="http://www.w3.org/2000/svg" xmlns:xlink="http://www.w3.org/1999/xlink" width="19.0107" height="19.0811">
 <g>
  <rect height="19.0811" opacity="0" width="19.0107" x="0" y="0"/>
  <path d="M9.50098 14.0186C11.9443 14.0186 13.9746 11.9883 13.9746 9.53613C13.9746 7.0752 11.9443 5.04492 9.50098 5.04492C7.05762 5.04492 5.02734 7.0752 5.02734 9.53613C5.02734 11.9883 7.05762 14.0186 9.50098 14.0186ZM9.50977 3.41895C9.92285 3.41895 10.2656 3.07617 10.2656 2.6543L10.2656 0.764648C10.2656 0.342773 9.92285 0 9.50977 0C9.08789 0 8.74512 0.342773 8.74512 0.764648L8.74512 2.6543C8.74512 3.07617 9.08789 3.41895 9.50977 3.41895ZM13.8164 5.2207C14.1152 5.51074 14.5986 5.51953 14.8975 5.2207L16.2422 3.87598C16.5322 3.58594 16.5322 3.09375 16.2422 2.79492C15.9521 2.50488 15.4688 2.50488 15.1699 2.79492L13.8164 4.14844C13.5264 4.44727 13.5264 4.93066 13.8164 5.2207ZM15.6006 9.53613C15.6006 9.94922 15.9521 10.292 16.3652 10.292L18.2549 10.292C18.668 10.292 19.0107 9.94922 19.0107 9.53613C19.0107 9.12305 18.668 8.77148 18.2549 8.77148L16.3652 8.77148C15.9521 8.77148 15.6006 9.12305 15.6006 9.53613ZM13.8164 13.8516C13.5264 14.1504 13.5264 14.6338 13.8164 14.9238L15.1699 16.2861C15.4688 16.5674 15.9521 16.5586 16.2422 16.2773C16.5322 15.9785 16.5322 15.4951 16.2422 15.2051L14.8887 13.8516C14.5986 13.5703 14.1152 13.5703 13.8164 13.8516ZM9.50977 15.6533C9.08789 15.6533 8.74512 15.9961 8.74512 16.4092L8.74512 18.3076C8.74512 18.7207 9.08789 19.0635 9.50977 19.0635C9.92285 19.0635 10.2656 18.7207 10.2656 18.3076L10.2656 16.4092C10.2656 15.9961 9.92285 15.6533 9.50977 15.6533ZM5.19434 13.8516C4.89551 13.5703 4.40332 13.5703 4.11328 13.8516L2.76855 15.1963C2.47852 15.4863 2.47852 15.9697 2.75977 16.2686C3.0498 16.5498 3.54199 16.5586 3.84082 16.2773L5.18555 14.9238C5.47559 14.6338 5.47559 14.1504 5.19434 13.8516ZM3.41016 9.53613C3.41016 9.12305 3.05859 8.77148 2.64551 8.77148L0.755859 8.77148C0.342773 8.77148 0 9.12305 0 9.53613C0 9.94922 0.342773 10.292 0.755859 10.292L2.64551 10.292C3.05859 10.292 3.41016 9.94922 3.41016 9.53613ZM5.18555 5.2207C5.47559 4.93945 5.47559 4.43848 5.19434 4.14844L3.84961 2.79492C3.55957 2.51367 3.06738 2.50488 2.77734 2.79492C2.4873 3.09375 2.4873 3.58594 2.76855 3.86719L4.11328 5.2207C4.40332 5.51074 4.88672 5.51074 5.18555 5.2207Z" fill="#a99894" fill-opacity="0.85"/>
 </g>
</svg>
