<?xml version="1.0" encoding="UTF-8"?>
<!--Generator: Apple Native CoreSVG 175.5-->
<!DOCTYPE svg
PUBLIC "-//W3C//DTD SVG 1.1//EN"
       "http://www.w3.org/Graphics/SVG/1.1/DTD/svg11.dtd">
<svg version="1.1" xmlns="http://www.w3.org/2000/svg" xmlns:xlink="http://www.w3.org/1999/xlink" width="16.1982" height="18.3604">
 <g>
  <rect height="18.3604" opacity="0" width="16.1982" x="0" y="0"/>
  <path d="M0.694336 11.2236C1.10742 11.2236 1.41504 10.9072 1.41504 10.5117L1.41504 7.84863C1.41504 7.45312 1.10742 7.12793 0.694336 7.12793C0.298828 7.12793 0 7.45312 0 7.84863L0 10.5117C0 10.9072 0.298828 11.2236 0.694336 11.2236ZM3.65625 14.8184C4.06055 14.8184 4.36816 14.502 4.36816 14.1064L4.36816 4.25391C4.36816 3.8584 4.06055 3.5332 3.65625 3.5332C3.26074 3.5332 2.95312 3.8584 2.95312 4.25391L2.95312 14.1064C2.95312 14.502 3.26074 14.8184 3.65625 14.8184ZM6.60938 18.3604C7.01367 18.3604 7.33008 18.0439 7.33008 17.6484L7.33008 0.711914C7.33008 0.316406 7.01367 0 6.60938 0C6.21387 0 5.91504 0.316406 5.91504 0.711914L5.91504 17.6484C5.91504 18.0439 6.21387 18.3604 6.60938 18.3604ZM9.57129 13.7461C9.97559 13.7461 10.2832 13.4385 10.2832 13.043L10.2832 5.31738C10.2832 4.92188 9.97559 4.60547 9.57129 4.60547C9.16699 4.60547 8.86816 4.92188 8.86816 5.31738L8.86816 13.043C8.86816 13.4385 9.16699 13.7461 9.57129 13.7461ZM12.5332 16.4092C12.9287 16.4092 13.2363 16.0928 13.2363 15.7061L13.2363 2.6543C13.2363 2.26758 12.9287 1.94238 12.5332 1.94238C12.1201 1.94238 11.8213 2.26758 11.8213 2.6543L11.8213 15.7061C11.8213 16.0928 12.1201 16.4092 12.5332 16.4092ZM15.4863 11.9795C15.8818 11.9795 16.1982 11.6631 16.1982 11.2764L16.1982 7.08398C16.1982 6.69727 15.8818 6.37207 15.4863 6.37207C15.082 6.37207 14.7832 6.69727 14.7832 7.08398L14.7832 11.2764C14.7832 11.6631 15.082 11.9795 15.4863 11.9795Z" fill="#a99894" fill-opacity="0.85"/>
 </g>
</svg>
