<?xml version="1.0" encoding="UTF-8"?>
<!--Generator: Apple Native CoreSVG 175.5-->
<!DOCTYPE svg
PUBLIC "-//W3C//DTD SVG 1.1//EN"
       "http://www.w3.org/Graphics/SVG/1.1/DTD/svg11.dtd">
<svg version="1.1" xmlns="http://www.w3.org/2000/svg" xmlns:xlink="http://www.w3.org/1999/xlink" width="24.126" height="15.5485">
 <g>
  <rect height="15.5485" opacity="0" width="24.126" x="0" y="0"/>
  <path d="M7.93652 0.000306485C6.43359-0.0172716 4.75488 0.72101 3.63867 2.28546C3.47168 2.4964 3.32227 2.7337 3.16406 3.08527C5.07129 3.42804 6.61816 5.11554 6.61816 6.9964C6.61816 7.53253 6.5127 8.02472 6.32812 8.46417C7.48828 8.29718 8.20898 8.03351 8.86816 7.66437C10.3184 6.82941 11.4609 5.47589 11.4609 3.53351C11.4609 1.2923 9.87891 0.0178846 7.93652 0.000306485ZM8.2793 3.77081C8.10352 3.92023 7.83105 3.90265 7.68164 3.71808C7.53223 3.53351 7.55859 3.26984 7.74316 3.12042L9.03516 2.03058C9.21094 1.88117 9.47461 1.90753 9.61523 2.0921C9.77344 2.26788 9.76465 2.53156 9.58008 2.68097ZM6.6709 15.5482L7.36523 15.5482C7.90137 15.5482 8.26172 15.2669 8.26172 14.722L8.26172 8.92999C7.51465 9.20245 6.67969 9.36945 5.76562 9.43097L5.76562 14.722C5.76562 15.2669 6.12598 15.5482 6.6709 15.5482ZM16.1807 0.000306485C14.2471 0.0178846 12.665 1.2923 12.665 3.53351C12.665 5.47589 13.8076 6.82941 15.249 7.66437C15.917 8.03351 16.6377 8.29718 17.7979 8.46417C17.6045 8.02472 17.5078 7.53253 17.5078 6.9964C17.5078 5.11554 19.0459 3.42804 20.9531 3.08527C20.8037 2.7337 20.6455 2.4964 20.4873 2.28546C19.3623 0.72101 17.6924-0.0172716 16.1807 0.000306485ZM15.8467 3.77081L14.5459 2.68097C14.3613 2.53156 14.3525 2.26788 14.502 2.0921C14.6426 1.90753 14.915 1.88117 15.0908 2.03058L16.3828 3.12042C16.5674 3.26984 16.585 3.53351 16.4355 3.71808C16.2861 3.90265 16.0225 3.92023 15.8467 3.77081ZM17.4463 15.5482C18 15.5482 18.3516 15.2669 18.3516 14.722L18.3516 9.43097C17.4375 9.36945 16.6113 9.20245 15.8643 8.92999L15.8643 14.722C15.8643 15.2669 16.2158 15.5482 16.7607 15.5482Z" fill="#000000" fill-opacity="0.85"/>
  <path d="M3.19922 9.54523C4.56152 9.54523 5.77441 8.70148 5.77441 6.9964C5.77441 5.47589 4.3418 3.86749 2.47852 3.86749C0.905273 3.86749 0 5.11554 0 6.38995C0 8.29718 1.62598 9.54523 3.19922 9.54523ZM2.75977 8.20929C2.51367 8.42902 2.0918 8.20929 1.57324 7.58527C1.06348 6.96124 0.931641 6.53058 1.17773 6.31964C1.43262 6.09113 1.8457 6.30206 2.37305 6.93488C2.87402 7.57648 3.00586 7.99835 2.75977 8.20929ZM20.9268 9.54523C22.5 9.54523 24.126 8.29718 24.126 6.38995C24.126 5.11554 23.2207 3.86749 21.6475 3.86749C19.7842 3.86749 18.3516 5.47589 18.3516 6.9964C18.3516 8.70148 19.5645 9.54523 20.9268 9.54523ZM21.3662 8.20929C21.1201 7.99835 21.252 7.57648 21.7529 6.93488C22.2803 6.30206 22.6934 6.09113 22.9482 6.31964C23.1943 6.53058 23.0625 6.96124 22.5527 7.58527C22.0342 8.20929 21.6123 8.42902 21.3662 8.20929Z" fill="#000000" fill-opacity="0.425"/>
 </g>
</svg>
